<?xml version="1.0" encoding="UTF-8"?>
<!DOCTYPE svg PUBLIC "-//W3C//DTD SVG 1.1//EN" "http://www.w3.org/Graphics/SVG/1.1/DTD/svg11.dtd">
<svg xmlns="http://www.w3.org/2000/svg" version="1.1" width="486px" height="486px" style="shape-rendering:geometricPrecision; text-rendering:geometricPrecision; image-rendering:optimizeQuality; fill-rule:evenodd; clip-rule:evenodd" xmlns:xlink="http://www.w3.org/1999/xlink">
<g><path style="opacity:0.349" fill="#d1d1d1" d="M 307.5,26.5 C 305.194,26.0074 302.861,25.6741 300.5,25.5C 298.485,24.0762 296.152,23.4095 293.5,23.5C 260.663,16.3209 227.663,15.6542 194.5,21.5C 201.189,19.157 208.189,17.657 215.5,17C 243.529,14.0908 271.196,16.0908 298.5,23C 301.79,23.7249 304.79,24.8916 307.5,26.5 Z"/></g>
<g><path style="opacity:0.999" fill="#0f0f0f" d="M 293.5,23.5 C 295.515,24.9238 297.848,25.5905 300.5,25.5C 302.861,25.6741 305.194,26.0074 307.5,26.5C 380.536,51.5342 430.203,100.534 456.5,173.5C 455.63,175.274 454.297,176.607 452.5,177.5C 449.645,178.117 446.978,179.117 444.5,180.5C 438.267,182.462 432.267,184.796 426.5,187.5C 421.856,188.599 417.522,190.266 413.5,192.5C 406.325,194.218 399.658,196.884 393.5,200.5C 389.447,201.35 385.447,202.516 381.5,204C 380.944,204.383 380.611,204.883 380.5,205.5C 377.848,205.41 375.515,206.076 373.5,207.5C 370.066,208.447 366.733,209.614 363.5,211C 362.484,211.519 361.818,212.353 361.5,213.5C 365.16,227.24 366.493,241.24 365.5,255.5C 364.049,262.908 362.382,270.408 360.5,278C 360.833,278.833 361.167,279.667 361.5,280.5C 392.815,289.826 424.148,298.826 455.5,307.5C 441.025,357.807 412.358,397.973 369.5,428C 345.083,444.076 318.75,455.576 290.5,462.5C 282.651,463.529 274.984,464.863 267.5,466.5C 252.851,467.351 238.184,467.685 223.5,467.5C 215.783,466.778 208.116,465.778 200.5,464.5C 198.485,463.076 196.152,462.41 193.5,462.5C 139.613,450.736 95.946,423.069 62.5,379.5C 31.5002,338.333 16.1669,291.833 16.5,240C 16.2414,226.725 17.2414,213.559 19.5,200.5C 21.8643,192.705 23.8643,184.705 25.5,176.5C 27.4051,172.785 28.7384,168.785 29.5,164.5C 30.404,163.791 30.7373,162.791 30.5,161.5C 32.0198,159.11 33.0198,156.443 33.5,153.5C 50.7114,116.616 75.3781,85.616 107.5,60.5C 120.613,51.9513 133.947,43.9513 147.5,36.5C 149.553,36.5979 151.22,35.9313 152.5,34.5C 166.455,29.8476 180.455,25.5142 194.5,21.5C 227.663,15.6542 260.663,16.3209 293.5,23.5 Z"/></g>
<g><path style="opacity:0.482" fill="#737373" d="M 293.5,23.5 C 296.152,23.4095 298.485,24.0762 300.5,25.5C 297.848,25.5905 295.515,24.9238 293.5,23.5 Z"/></g>
<g><path style="opacity:0.008" fill="#cdcdcd" d="M 194.5,21.5 C 180.455,25.5142 166.455,29.8476 152.5,34.5C 165.613,27.9249 179.613,23.5916 194.5,21.5 Z"/></g>
<g><path style="opacity:1" fill="#f8f5f5" d="M 268.5,27.5 C 273.223,29.2249 278.223,30.2249 283.5,30.5C 362.479,48.8482 416.812,95.8482 446.5,171.5C 445.9,173.468 444.567,174.468 442.5,174.5C 440.033,174.755 438.033,175.755 436.5,177.5C 429.871,179.542 423.204,181.709 416.5,184C 406.326,187.925 396.326,192.092 386.5,196.5C 382.292,196.677 378.626,198.01 375.5,200.5C 373.302,200.12 371.635,200.787 370.5,202.5C 366.292,202.677 362.626,204.01 359.5,206.5C 357.565,207.15 355.565,207.483 353.5,207.5C 356.435,216.582 358.102,225.915 358.5,235.5C 358.566,244.852 358.232,254.185 357.5,263.5C 355.513,269.607 354.346,275.94 354,282.5C 356.542,284.182 359.375,285.182 362.5,285.5C 365.505,287.277 368.838,288.277 372.5,288.5C 379.402,290.781 386.402,292.781 393.5,294.5C 396.505,296.277 399.838,297.277 403.5,297.5C 413.869,300.343 424.202,303.343 434.5,306.5C 437.799,308.483 441.466,309.483 445.5,309.5C 441.104,326.967 433.937,343.301 424,358.5C 391.592,407.785 346.758,439.452 289.5,453.5C 280.307,454.807 271.307,456.474 262.5,458.5C 258.833,458.5 255.167,458.5 251.5,458.5C 239.482,458.642 227.482,458.309 215.5,457.5C 213.379,457.675 211.379,457.341 209.5,456.5C 205.433,454.946 201.1,454.28 196.5,454.5C 193.572,454.435 190.905,453.768 188.5,452.5C 183.5,450.057 178.166,448.39 172.5,447.5C 118.865,429.383 78.3655,395.383 51,345.5C 25.0518,294.8 18.8852,241.8 32.5,186.5C 33.9238,184.485 34.5905,182.152 34.5,179.5C 53.525,119.48 91.1917,75.4797 147.5,47.5C 153.374,46.2255 158.708,43.8921 163.5,40.5C 166.855,40.3104 169.855,39.3104 172.5,37.5C 180.503,34.4126 188.836,32.0793 197.5,30.5C 204.08,30.2605 210.413,29.2605 216.5,27.5C 233.774,26.2724 251.107,26.2724 268.5,27.5 Z"/></g>
<g><path style="opacity:1" fill="#8c8c8c" d="M 216.5,27.5 C 210.413,29.2605 204.08,30.2605 197.5,30.5C 203.543,28.4919 209.876,27.4919 216.5,27.5 Z"/></g>
<g><path style="opacity:1" fill="#787878" d="M 268.5,27.5 C 273.777,27.7751 278.777,28.7751 283.5,30.5C 278.223,30.2249 273.223,29.2249 268.5,27.5 Z"/></g>
<g><path style="opacity:0.071" fill="#e1e1e1" d="M 152.5,34.5 C 151.22,35.9313 149.553,36.5979 147.5,36.5C 148.78,35.0687 150.447,34.4021 152.5,34.5 Z"/></g>
<g><path style="opacity:1" fill="#ff443e" d="M 268.5,37.5 C 249.495,36.259 230.495,36.259 211.5,37.5C 213.631,36.6862 215.964,36.1862 218.5,36C 232.833,35.3333 247.167,35.3333 261.5,36C 264.036,36.1862 266.369,36.6862 268.5,37.5 Z"/></g>
<g><path style="opacity:1" fill="#ff0301" d="M 268.5,37.5 C 276.966,38.0902 285.299,39.4235 293.5,41.5C 296.505,43.2766 299.838,44.2766 303.5,44.5C 365.153,65.4814 408.486,106.148 433.5,166.5C 431.901,166.232 430.568,166.566 429.5,167.5C 423.859,168.932 418.525,170.932 413.5,173.5C 409.605,174.462 405.939,175.796 402.5,177.5C 394.401,179.728 386.734,182.728 379.5,186.5C 376.848,186.41 374.515,187.076 372.5,188.5C 368.605,189.462 364.939,190.796 361.5,192.5C 357.155,193.837 352.822,195.171 348.5,196.5C 336.274,167.94 315.94,147.273 287.5,134.5C 287.027,133.094 286.027,132.427 284.5,132.5C 273.721,128.945 262.721,126.279 251.5,124.5C 242.343,123.342 233.009,123.176 223.5,124C 219.57,124.242 215.903,125.075 212.5,126.5C 209.848,126.41 207.515,127.076 205.5,128.5C 198.581,129.47 192.248,131.804 186.5,135.5C 162.733,146.431 144.567,163.431 132,186.5C 128.308,193.542 125.475,200.875 123.5,208.5C 121.723,211.505 120.723,214.838 120.5,218.5C 111.357,277.039 132.024,321.539 182.5,352C 189.112,355.642 196.112,358.142 203.5,359.5C 206.505,361.277 209.838,362.277 213.5,362.5C 224.387,365.394 235.387,366.061 246.5,364.5C 257.335,363.4 268.002,361.4 278.5,358.5C 281.947,357.917 284.947,356.584 287.5,354.5C 314.77,342.23 334.77,322.564 347.5,295.5C 352.784,297.039 358.118,298.373 363.5,299.5C 365.905,300.768 368.572,301.435 371.5,301.5C 373.102,303.074 375.102,303.741 377.5,303.5C 379.772,304.319 382.106,304.985 384.5,305.5C 386.102,307.074 388.102,307.741 390.5,307.5C 393.003,308.371 395.67,309.037 398.5,309.5C 400.102,311.074 402.102,311.741 404.5,311.5C 406.515,312.924 408.848,313.59 411.5,313.5C 418.356,315.964 425.356,317.964 432.5,319.5C 415.098,364.422 385.431,398.922 343.5,423C 337.075,426.213 330.741,429.379 324.5,432.5C 320.873,433.321 317.54,434.654 314.5,436.5C 309.856,437.599 305.522,439.266 301.5,441.5C 301.167,441.5 300.833,441.5 300.5,441.5C 297.848,441.41 295.515,442.076 293.5,443.5C 287.245,444.215 281.245,445.549 275.5,447.5C 272.098,447.342 268.764,447.676 265.5,448.5C 245.124,448.864 224.79,448.197 204.5,446.5C 203.833,446.5 203.167,446.5 202.5,446.5C 200.485,445.076 198.152,444.41 195.5,444.5C 192.061,444.212 188.728,443.546 185.5,442.5C 182.659,441.331 179.659,440.331 176.5,439.5C 109.225,415.557 64.5584,369.557 42.5,301.5C 42.5905,298.848 41.9238,296.515 40.5,294.5C 21.4884,201.414 49.8217,126.581 125.5,70C 140.768,60.0333 157.101,52.2 174.5,46.5C 177.855,46.3104 180.855,45.3104 183.5,43.5C 184.568,42.5655 185.901,42.2322 187.5,42.5C 190.152,42.5905 192.485,41.9238 194.5,40.5C 194.833,40.5 195.167,40.5 195.5,40.5C 199.04,40.2474 202.373,39.5808 205.5,38.5C 207.379,37.6586 209.379,37.3253 211.5,37.5C 230.495,36.259 249.495,36.259 268.5,37.5 Z"/></g>
<g><path style="opacity:1" fill="#8d8d8d" d="M 172.5,37.5 C 169.855,39.3104 166.855,40.3104 163.5,40.5C 166.084,38.5275 169.084,37.5275 172.5,37.5 Z"/></g>
<g><path style="opacity:1" fill="#ff6d68" d="M 205.5,38.5 C 202.373,39.5808 199.04,40.2474 195.5,40.5C 195.918,39.7784 196.584,39.2784 197.5,39C 200.146,38.5026 202.813,38.3359 205.5,38.5 Z"/></g>
<g><path style="opacity:1" fill="#ff605b" d="M 194.5,40.5 C 192.485,41.9238 190.152,42.5905 187.5,42.5C 189.515,41.0762 191.848,40.4095 194.5,40.5 Z"/></g>
<g><path style="opacity:1" fill="#ffb2b0" d="M 293.5,41.5 C 297.162,41.7234 300.495,42.7234 303.5,44.5C 299.838,44.2766 296.505,43.2766 293.5,41.5 Z"/></g>
<g><path style="opacity:1" fill="#ff635c" d="M 183.5,43.5 C 180.855,45.3104 177.855,46.3104 174.5,46.5C 177.084,44.5275 180.084,43.5275 183.5,43.5 Z"/></g>
<g><path style="opacity:1" fill="#b2b2b2" d="M 163.5,40.5 C 158.708,43.8921 153.374,46.2255 147.5,47.5C 152.296,44.1057 157.629,41.7723 163.5,40.5 Z"/></g>
<g><path style="opacity:0.192" fill="#d6d6d6" d="M 147.5,36.5 C 133.947,43.9513 120.613,51.9513 107.5,60.5C 119.282,50.1061 132.615,42.1061 147.5,36.5 Z"/></g>
<g><path style="opacity:0.176" fill="#d7d7d7" d="M 107.5,60.5 C 75.3781,85.616 50.7114,116.616 33.5,153.5C 49.0705,116.432 72.7371,85.599 104.5,61C 105.448,60.5172 106.448,60.3505 107.5,60.5 Z"/></g>
<g><path style="opacity:0.024" fill="#dcdcdc" d="M 307.5,26.5 C 348.638,38.4623 383.471,60.4623 412,92.5C 432.959,117.068 448.793,144.735 459.5,175.5C 454.324,179.749 448.324,182.416 441.5,183.5C 442.694,182.728 443.694,181.728 444.5,180.5C 446.978,179.117 449.645,178.117 452.5,177.5C 456.517,178.161 457.851,176.828 456.5,173.5C 430.203,100.534 380.536,51.5342 307.5,26.5 Z"/></g>
<g><path style="opacity:1" fill="#ff9e9c" d="M 251.5,124.5 C 238.422,124.132 225.422,124.799 212.5,126.5C 215.903,125.075 219.57,124.242 223.5,124C 233.009,123.176 242.343,123.342 251.5,124.5 Z"/></g>
<g><path style="opacity:1" fill="#ffb0ae" d="M 205.5,128.5 C 199.316,131.085 192.983,133.419 186.5,135.5C 192.248,131.804 198.581,129.47 205.5,128.5 Z"/></g>
<g><path style="opacity:1" fill="#ff908d" d="M 284.5,132.5 C 286.027,132.427 287.027,133.094 287.5,134.5C 285.973,134.573 284.973,133.906 284.5,132.5 Z"/></g>
<g><path style="opacity:1" fill="#a1a1a1" d="M 246.5,136.5 C 239.492,136.334 232.492,136.5 225.5,137C 230.377,138.942 235.044,141.108 239.5,143.5C 233.369,142.763 228.036,140.43 223.5,136.5C 231.323,135.18 238.99,135.18 246.5,136.5 Z"/></g>
<g><path style="opacity:1" fill="#0d0d0d" d="M 246.5,136.5 C 249.167,136.5 251.833,136.5 254.5,136.5C 256.515,137.924 258.848,138.59 261.5,138.5C 267.004,140.499 272.671,141.999 278.5,143C 279.574,143.739 280.241,144.739 280.5,146C 276.011,150.985 271.011,155.485 265.5,159.5C 257.06,153.712 248.393,148.378 239.5,143.5C 235.044,141.108 230.377,138.942 225.5,137C 232.492,136.5 239.492,136.334 246.5,136.5 Z"/></g>
<g><path style="opacity:1" fill="#929292" d="M 254.5,136.5 C 257.152,136.41 259.485,137.076 261.5,138.5C 258.848,138.59 256.515,137.924 254.5,136.5 Z"/></g>
<g><path style="opacity:1" fill="#080808" d="M 242.5,174.5 C 238.23,176.138 234.23,178.138 230.5,180.5C 227.745,181.344 225.079,182.344 222.5,183.5C 218.322,170.654 213.655,157.988 208.5,145.5C 210.074,144.369 211.741,144.202 213.5,145C 227.721,150.024 241.054,156.857 253.5,165.5C 254.711,166.274 254.711,167.107 253.5,168C 249.44,169.689 245.773,171.856 242.5,174.5 Z"/></g>
<g><path style="opacity:1" fill="#0b0b0b" d="M 210.5,189.5 C 205.4,189.711 200.734,191.045 196.5,193.5C 193.012,193.54 189.679,194.207 186.5,195.5C 182.865,196.114 179.198,196.448 175.5,196.5C 175.993,194.194 176.326,191.861 176.5,189.5C 179.951,174.47 186.285,160.804 195.5,148.5C 198.329,155.125 201.163,161.792 204,168.5C 206.472,175.417 208.639,182.417 210.5,189.5 Z"/></g>
<g><path style="opacity:1" fill="#060606" d="M 336.5,202.5 C 329.325,204.218 322.658,206.884 316.5,210.5C 313.084,210.528 310.084,211.528 307.5,213.5C 306.504,213.586 305.671,213.252 305,212.5C 297.905,195.971 288.072,181.304 275.5,168.5C 281.981,163.077 288.314,157.411 294.5,151.5C 313.682,163.845 328.016,180.345 337.5,201C 337.43,201.765 337.097,202.265 336.5,202.5 Z"/></g>
<g><path style="opacity:0.035" fill="#e6e6e6" d="M 33.5,153.5 C 33.0198,156.443 32.0198,159.11 30.5,161.5C 30.4152,158.351 31.4152,155.684 33.5,153.5 Z"/></g>
<g><path style="opacity:1" fill="#121212" d="M 176.5,154.5 C 177.239,154.369 177.906,154.536 178.5,155C 170.815,168.555 165.481,183.055 162.5,198.5C 155.197,199.497 147.863,199.831 140.5,199.5C 142.572,192.69 145.738,186.356 150,180.5C 154.167,175.667 158.333,170.833 162.5,166C 167.065,161.925 171.732,158.091 176.5,154.5 Z"/></g>
<g><path style="opacity:0.078" fill="#e6e6e6" d="M 30.5,161.5 C 30.7373,162.791 30.404,163.791 29.5,164.5C 28.1854,163.105 28.5188,162.105 30.5,161.5 Z"/></g>
<g><path style="opacity:0.365" fill="#d2d2d2" d="M 29.5,164.5 C 28.7384,168.785 27.4051,172.785 25.5,176.5C 25.4703,171.921 26.8037,167.921 29.5,164.5 Z"/></g>
<g><path style="opacity:1" fill="#ff9a97" d="M 429.5,167.5 C 429.389,168.117 429.056,168.617 428.5,169C 423.653,171.095 418.653,172.595 413.5,173.5C 418.525,170.932 423.859,168.932 429.5,167.5 Z"/></g>
<g><path style="opacity:1" fill="#ff9e9b" d="M 413.5,173.5 C 410.374,175.99 406.708,177.323 402.5,177.5C 405.939,175.796 409.605,174.462 413.5,173.5 Z"/></g>
<g><path style="opacity:1" fill="#737373" d="M 442.5,174.5 C 440.967,176.245 438.967,177.245 436.5,177.5C 438.033,175.755 440.033,174.755 442.5,174.5 Z"/></g>
<g><path style="opacity:0.243" fill="#7e7e7e" d="M 456.5,173.5 C 457.851,176.828 456.517,178.161 452.5,177.5C 454.297,176.607 455.63,175.274 456.5,173.5 Z"/></g>
<g><path style="opacity:1" fill="#050505" d="M 293.5,216.5 C 293.423,217.75 292.756,218.583 291.5,219C 284.948,221.233 278.615,223.733 272.5,226.5C 264.613,228.453 257.28,231.453 250.5,235.5C 247.833,235.833 245.167,236.167 242.5,236.5C 238.033,223.767 233.367,211.101 228.5,198.5C 228.5,197.5 228.5,196.5 228.5,195.5C 230.38,195.771 231.713,195.104 232.5,193.5C 243.42,188.689 253.754,182.856 263.5,176C 264.5,175.333 265.5,175.333 266.5,176C 278.39,187.625 287.39,201.125 293.5,216.5 Z"/></g>
<g><path style="opacity:1" fill="#adadad" d="M 242.5,174.5 C 242.063,176.074 241.063,177.241 239.5,178C 236.647,179.43 233.647,180.263 230.5,180.5C 234.23,178.138 238.23,176.138 242.5,174.5 Z"/></g>
<g><path style="opacity:1" fill="#ff9f9c" d="M 402.5,177.5 C 395.338,181.45 387.671,184.45 379.5,186.5C 386.734,182.728 394.401,179.728 402.5,177.5 Z"/></g>
<g><path style="opacity:1" fill="#929292" d="M 34.5,179.5 C 34.5905,182.152 33.9238,184.485 32.5,186.5C 32.4095,183.848 33.0762,181.515 34.5,179.5 Z"/></g>
<g><path style="opacity:0.349" fill="#d4d4d4" d="M 25.5,176.5 C 23.8643,184.705 21.8643,192.705 19.5,200.5C 19.3893,199.883 19.056,199.383 18.5,199C 20.4608,191.306 22.7942,183.806 25.5,176.5 Z"/></g>
<g><path style="opacity:0.275" fill="#898989" d="M 444.5,180.5 C 443.694,181.728 442.694,182.728 441.5,183.5C 436.58,185.126 431.58,186.459 426.5,187.5C 432.267,184.796 438.267,182.462 444.5,180.5 Z"/></g>
<g><path style="opacity:1" fill="#ff9f9b" d="M 379.5,186.5 C 377.485,187.924 375.152,188.59 372.5,188.5C 374.515,187.076 376.848,186.41 379.5,186.5 Z"/></g>
<g><path style="opacity:0.239" fill="#898989" d="M 426.5,187.5 C 426.389,188.117 426.056,188.617 425.5,189C 421.553,190.484 417.553,191.65 413.5,192.5C 417.522,190.266 421.856,188.599 426.5,187.5 Z"/></g>
<g><path style="opacity:1" fill="#ffa09d" d="M 372.5,188.5 C 369.374,190.99 365.708,192.323 361.5,192.5C 364.939,190.796 368.605,189.462 372.5,188.5 Z"/></g>
<g><path style="opacity:1" fill="#a7a7a7" d="M 210.5,189.5 C 206.105,191.435 201.438,192.769 196.5,193.5C 200.734,191.045 205.4,189.711 210.5,189.5 Z"/></g>
<g><path style="opacity:0.208" fill="#8d8d8d" d="M 413.5,192.5 C 407.342,196.116 400.675,198.782 393.5,200.5C 399.658,196.884 406.325,194.218 413.5,192.5 Z"/></g>
<g><path style="opacity:1" fill="#8d8d8d" d="M 176.5,189.5 C 176.326,191.861 175.993,194.194 175.5,196.5C 179.198,196.448 182.865,196.114 186.5,195.5C 182.817,197.25 178.817,197.917 174.5,197.5C 174.294,194.505 174.96,191.838 176.5,189.5 Z"/></g>
<g><path style="opacity:1" fill="#727272" d="M 232.5,193.5 C 231.713,195.104 230.38,195.771 228.5,195.5C 228.5,196.5 228.5,197.5 228.5,198.5C 227.566,197.432 227.232,196.099 227.5,194.5C 229.216,194.371 230.883,194.038 232.5,193.5 Z"/></g>
<g><path style="opacity:1" fill="#ffb6b4" d="M 361.5,192.5 C 359.115,194.263 356.448,195.763 353.5,197C 351.613,197.78 349.946,197.613 348.5,196.5C 352.822,195.171 357.155,193.837 361.5,192.5 Z"/></g>
<g><path style="opacity:1" fill="#6f6f6f" d="M 386.5,196.5 C 383.061,198.204 379.395,199.538 375.5,200.5C 378.626,198.01 382.292,196.677 386.5,196.5 Z"/></g>
<g><path style="opacity:1" fill="#050505" d="M 226.5,244.5 C 223.848,244.41 221.515,245.076 219.5,246.5C 211.214,248.987 203.214,251.987 195.5,255.5C 190.311,256.554 185.644,258.554 181.5,261.5C 180.5,261.5 179.5,261.5 178.5,261.5C 173.795,244.858 171.795,227.858 172.5,210.5C 187.182,208.266 201.516,205.1 215.5,201C 221.344,214.88 226.344,229.047 230.5,243.5C 228.901,243.232 227.568,243.566 226.5,244.5 Z"/></g>
<g><path style="opacity:1" fill="#919191" d="M 336.5,202.5 C 330.342,206.116 323.675,208.782 316.5,210.5C 322.658,206.884 329.325,204.218 336.5,202.5 Z"/></g>
<g><path style="opacity:0.294" fill="#8d8d8d" d="M 393.5,200.5 C 389.478,202.734 385.144,204.401 380.5,205.5C 380.611,204.883 380.944,204.383 381.5,204C 385.447,202.516 389.447,201.35 393.5,200.5 Z"/></g>
<g><path style="opacity:1" fill="#727272" d="M 370.5,202.5 C 367.061,204.204 363.395,205.538 359.5,206.5C 362.626,204.01 366.292,202.677 370.5,202.5 Z"/></g>
<g><path style="opacity:0.286" fill="#888888" d="M 380.5,205.5 C 378.485,206.924 376.152,207.59 373.5,207.5C 375.515,206.076 377.848,205.41 380.5,205.5 Z"/></g>
<g><path style="opacity:1" fill="#6d6d6d" d="M 161.5,233.5 C 160.509,226.687 160.175,219.687 160.5,212.5C 151.736,212.244 143.069,212.244 134.5,212.5C 135.694,211.223 137.36,210.556 139.5,210.5C 146.812,211.303 154.146,211.636 161.5,211.5C 161.5,218.833 161.5,226.167 161.5,233.5 Z"/></g>
<g><path style="opacity:1" fill="#8c8c8c" d="M 316.5,210.5 C 313.855,212.31 310.855,213.31 307.5,213.5C 310.084,211.528 313.084,210.528 316.5,210.5 Z"/></g>
<g><path style="opacity:1" fill="#020202" d="M 161.5,233.5 C 162.389,244.055 164.389,254.389 167.5,264.5C 167.53,265.497 167.03,266.164 166,266.5C 162.284,267.567 158.784,268.901 155.5,270.5C 153.033,270.755 151.033,271.755 149.5,273.5C 146.084,273.528 143.084,274.528 140.5,276.5C 138.761,277.434 137.095,277.434 135.5,276.5C 134.033,272.931 132.866,269.264 132,265.5C 130.835,254.53 130.335,243.53 130.5,232.5C 132.136,228.79 132.802,224.79 132.5,220.5C 132.963,217.779 133.629,215.112 134.5,212.5C 143.069,212.244 151.736,212.244 160.5,212.5C 160.175,219.687 160.509,226.687 161.5,233.5 Z"/></g>
<g><path style="opacity:1" fill="#ffafac" d="M 123.5,208.5 C 123.277,212.162 122.277,215.495 120.5,218.5C 120.723,214.838 121.723,211.505 123.5,208.5 Z"/></g>
<g><path style="opacity:1" fill="#070707" d="M 312.5,235.5 C 312.59,232.848 311.924,230.515 310.5,228.5C 310.5,228.167 310.5,227.833 310.5,227.5C 310.414,226.504 310.748,225.671 311.5,225C 313.723,224.434 315.723,223.6 317.5,222.5C 322.011,221.069 326.345,219.402 330.5,217.5C 333.294,215.654 336.461,214.32 340,213.5C 340.772,213.645 341.439,213.978 342,214.5C 348.588,236.65 347.755,258.483 339.5,280C 331.507,280.5 323.507,280.666 315.5,280.5C 316.226,265.316 315.226,250.316 312.5,235.5 Z"/></g>
<g><path style="opacity:1" fill="#757575" d="M 330.5,217.5 C 326.345,219.402 322.011,221.069 317.5,222.5C 321.203,219.483 325.536,217.816 330.5,217.5 Z"/></g>
<g><path style="opacity:1" fill="#808080" d="M 293.5,216.5 C 294.828,217.91 294.495,219.076 292.5,220C 285.964,222.679 279.297,224.846 272.5,226.5C 278.615,223.733 284.948,221.233 291.5,219C 292.756,218.583 293.423,217.75 293.5,216.5 Z"/></g>
<g><path style="opacity:1" fill="#6f6f6f" d="M 317.5,222.5 C 315.723,223.6 313.723,224.434 311.5,225C 310.748,225.671 310.414,226.504 310.5,227.5C 309.209,226.458 309.209,225.292 310.5,224C 312.74,223.023 315.073,222.523 317.5,222.5 Z"/></g>
<g><path style="opacity:1" fill="#595959" d="M 132.5,220.5 C 132.802,224.79 132.136,228.79 130.5,232.5C 130.198,228.21 130.864,224.21 132.5,220.5 Z"/></g>
<g><path style="opacity:1" fill="#888888" d="M 272.5,226.5 C 265.599,230.253 258.265,233.253 250.5,235.5C 257.28,231.453 264.613,228.453 272.5,226.5 Z"/></g>
<g><path style="opacity:1" fill="#040404" d="M 303.5,258.5 C 303.666,265.841 303.5,273.174 303,280.5C 301.052,281.109 299.218,281.776 297.5,282.5C 287.762,283.091 278.429,285.091 269.5,288.5C 267.139,288.674 264.806,289.007 262.5,289.5C 256.703,275.775 251.703,261.775 247.5,247.5C 251.292,246.759 254.959,245.759 258.5,244.5C 265.612,242.799 272.278,240.133 278.5,236.5C 279.833,236.167 281.167,235.833 282.5,235.5C 286.395,234.538 290.061,233.204 293.5,231.5C 296.308,229.833 298.475,230.5 300,233.5C 302.394,241.653 303.561,249.987 303.5,258.5 Z"/></g>
<g><path style="opacity:1" fill="#747474" d="M 293.5,231.5 C 290.061,233.204 286.395,234.538 282.5,235.5C 285.626,233.01 289.292,231.677 293.5,231.5 Z"/></g>
<g><path style="opacity:1" fill="#818181" d="M 310.5,228.5 C 311.924,230.515 312.59,232.848 312.5,235.5C 311.076,233.485 310.41,231.152 310.5,228.5 Z"/></g>
<g><path style="opacity:1" fill="#8e8e8e" d="M 250.5,235.5 C 247.96,237.413 245.293,237.746 242.5,236.5C 245.167,236.167 247.833,235.833 250.5,235.5 Z"/></g>
<g><path style="opacity:1" fill="#676767" d="M 278.5,236.5 C 272.278,240.133 265.612,242.799 258.5,244.5C 264.658,240.884 271.325,238.218 278.5,236.5 Z"/></g>
<g><path style="opacity:0.028" fill="#e4e4e4" d="M 441.5,183.5 C 415.74,193.927 389.74,204.094 363.5,214C 367.801,230.135 368.468,246.301 365.5,262.5C 365.5,260.167 365.5,257.833 365.5,255.5C 366.493,241.24 365.16,227.24 361.5,213.5C 361.818,212.353 362.484,211.519 363.5,211C 366.733,209.614 370.066,208.447 373.5,207.5C 376.152,207.59 378.485,206.924 380.5,205.5C 385.144,204.401 389.478,202.734 393.5,200.5C 400.675,198.782 407.342,196.116 413.5,192.5C 417.553,191.65 421.553,190.484 425.5,189C 426.056,188.617 426.389,188.117 426.5,187.5C 431.58,186.459 436.58,185.126 441.5,183.5 Z"/></g>
<g><path style="opacity:1" fill="#8e8e8e" d="M 226.5,244.5 C 224.485,245.924 222.152,246.59 219.5,246.5C 221.515,245.076 223.848,244.41 226.5,244.5 Z"/></g>
<g><path style="opacity:1" fill="#898989" d="M 219.5,246.5 C 212.045,250.656 204.045,253.656 195.5,255.5C 203.214,251.987 211.214,248.987 219.5,246.5 Z"/></g>
<g><path style="opacity:1" fill="#050505" d="M 249.5,293.5 C 248.375,295 247.041,296.333 245.5,297.5C 234.331,301.084 223.998,306.251 214.5,313C 213.5,313.667 212.5,313.667 211.5,313C 199.107,301.129 189.774,287.296 183.5,271.5C 186.5,270.833 189.5,270.167 192.5,269.5C 195.397,268.871 198.064,267.871 200.5,266.5C 201.93,265.463 203.597,264.796 205.5,264.5C 209.395,263.538 213.061,262.204 216.5,260.5C 221.992,257.558 227.826,255.225 234,253.5C 240.52,266.223 245.686,279.556 249.5,293.5 Z"/></g>
<g><path style="opacity:1" fill="#898989" d="M 195.5,255.5 C 191.191,258.057 186.524,260.057 181.5,261.5C 185.644,258.554 190.311,256.554 195.5,255.5 Z"/></g>
<g><path style="opacity:1" fill="#333333" d="M 358.5,235.5 C 359.165,239.151 359.499,242.985 359.5,247C 359.689,252.752 359.022,258.252 357.5,263.5C 358.232,254.185 358.566,244.852 358.5,235.5 Z"/></g>
<g><path style="opacity:1" fill="#767676" d="M 216.5,260.5 C 213.061,262.204 209.395,263.538 205.5,264.5C 208.626,262.01 212.292,260.677 216.5,260.5 Z"/></g>
<g><path style="opacity:1" fill="#919191" d="M 167.5,264.5 C 168.404,265.209 168.737,266.209 168.5,267.5C 164.214,268.707 159.88,269.707 155.5,270.5C 158.784,268.901 162.284,267.567 166,266.5C 167.03,266.164 167.53,265.497 167.5,264.5 Z"/></g>
<g><path style="opacity:1" fill="#6e6e6e" d="M 200.5,266.5 C 198.064,267.871 195.397,268.871 192.5,269.5C 194.617,267.345 197.284,266.345 200.5,266.5 Z"/></g>
<g><path style="opacity:1" fill="#818181" d="M 155.5,270.5 C 153.967,272.245 151.967,273.245 149.5,273.5C 151.033,271.755 153.033,270.755 155.5,270.5 Z"/></g>
<g><path style="opacity:1" fill="#8f8f8f" d="M 149.5,273.5 C 146.855,275.31 143.855,276.31 140.5,276.5C 143.084,274.528 146.084,273.528 149.5,273.5 Z"/></g>
<g><path style="opacity:1" fill="#878787" d="M 172.5,277.5 C 170.167,278.167 167.833,278.833 165.5,279.5C 166.871,277.859 168.704,276.859 171,276.5C 171.765,276.57 172.265,276.903 172.5,277.5 Z"/></g>
<g><path style="opacity:1" fill="#a7a7a7" d="M 303.5,258.5 C 304.656,265.989 304.822,273.655 304,281.5C 301.959,282.423 299.792,282.756 297.5,282.5C 299.218,281.776 301.052,281.109 303,280.5C 303.5,273.174 303.666,265.841 303.5,258.5 Z"/></g>
<g><path style="opacity:1" fill="#070707" d="M 172.5,277.5 C 179.756,293.654 189.756,307.987 202.5,320.5C 199.839,322.494 197.506,324.827 195.5,327.5C 191.9,329.43 188.9,332.097 186.5,335.5C 184.713,337.887 182.713,338.053 180.5,336C 163.479,324.642 150.312,309.809 141,291.5C 140.251,290.365 140.417,289.365 141.5,288.5C 149.335,285.11 157.335,282.11 165.5,279.5C 167.833,278.833 170.167,278.167 172.5,277.5 Z"/></g>
<g><path style="opacity:1" fill="#5e5e5e" d="M 362.5,285.5 C 366.162,285.723 369.495,286.723 372.5,288.5C 368.838,288.277 365.505,287.277 362.5,285.5 Z"/></g>
<g><path style="opacity:0.227" fill="#c9c9c9" d="M 365.5,255.5 C 365.5,257.833 365.5,260.167 365.5,262.5C 365.196,267.829 364.196,272.996 362.5,278C 362.833,278.333 363.167,278.667 363.5,279C 393.811,287.239 423.811,296.072 453.5,305.5C 454.167,306.167 454.833,306.833 455.5,307.5C 424.148,298.826 392.815,289.826 361.5,280.5C 361.167,279.667 360.833,278.833 360.5,278C 362.382,270.408 364.049,262.908 365.5,255.5 Z"/></g>
<g><path style="opacity:1" fill="#848484" d="M 269.5,288.5 C 267.287,290.312 264.953,290.645 262.5,289.5C 264.806,289.007 267.139,288.674 269.5,288.5 Z"/></g>
<g><path style="opacity:1" fill="#707070" d="M 333.5,294.5 C 326.599,293.19 319.599,293.19 312.5,294.5C 315.768,293.178 319.435,292.511 323.5,292.5C 327.167,292.833 330.833,293.167 334.5,293.5C 334.376,294.107 334.043,294.44 333.5,294.5 Z"/></g>
<g><path style="opacity:1" fill="#0e0e0e" d="M 333.5,294.5 C 329.578,302.016 324.911,309.016 319.5,315.5C 314.833,319.5 310.5,323.833 306.5,328.5C 304.114,329.373 302.114,330.873 300.5,333C 299.668,333.688 299.002,333.521 298.5,332.5C 305.306,320.604 309.972,307.937 312.5,294.5C 319.599,293.19 326.599,293.19 333.5,294.5 Z"/></g>
<g><path style="opacity:1" fill="#606060" d="M 393.5,294.5 C 397.162,294.723 400.495,295.723 403.5,297.5C 399.838,297.277 396.505,296.277 393.5,294.5 Z"/></g>
<g><path style="opacity:1" fill="#535353" d="M 300.5,295.5 C 290.624,296.576 280.957,298.576 271.5,301.5C 280.765,297.016 290.431,295.016 300.5,295.5 Z"/></g>
<g><path style="opacity:1" fill="#929292" d="M 249.5,293.5 C 250.404,294.209 250.737,295.209 250.5,296.5C 248.784,296.629 247.117,296.962 245.5,297.5C 247.041,296.333 248.375,295 249.5,293.5 Z"/></g>
<g><path style="opacity:1" fill="#070707" d="M 300.5,295.5 C 296.418,310.662 289.918,324.662 281,337.5C 275.42,325.929 270.92,313.929 267.5,301.5C 268.833,301.5 270.167,301.5 271.5,301.5C 280.957,298.576 290.624,296.576 300.5,295.5 Z"/></g>
<g><path style="opacity:1" fill="#ffadab" d="M 347.5,295.5 C 347.917,294.876 348.584,294.543 349.5,294.5C 354.411,295.801 359.078,297.468 363.5,299.5C 358.118,298.373 352.784,297.039 347.5,295.5 Z"/></g>
<g><path style="opacity:1" fill="#ffaeab" d="M 40.5,294.5 C 41.9238,296.515 42.5905,298.848 42.5,301.5C 41.0762,299.485 40.4095,297.152 40.5,294.5 Z"/></g>
<g><path style="opacity:1" fill="#ffb1b0" d="M 371.5,301.5 C 373.898,301.259 375.898,301.926 377.5,303.5C 375.102,303.741 373.102,303.074 371.5,301.5 Z"/></g>
<g><path style="opacity:1" fill="#ff9f9d" d="M 384.5,305.5 C 386.898,305.259 388.898,305.926 390.5,307.5C 388.102,307.741 386.102,307.074 384.5,305.5 Z"/></g>
<g><path style="opacity:1" fill="#666666" d="M 434.5,306.5 C 438.427,306.926 442.093,307.926 445.5,309.5C 441.466,309.483 437.799,308.483 434.5,306.5 Z"/></g>
<g><path style="opacity:1" fill="#0e0e0e" d="M 267.5,339.5 C 267.5,340.5 267.5,341.5 267.5,342.5C 266.167,342.5 264.833,342.5 263.5,342.5C 250.839,338.497 238.839,332.997 227.5,326C 225.167,324.757 224.5,323.091 225.5,321C 232.736,316.215 240.403,312.215 248.5,309C 250.821,308.163 253.155,307.83 255.5,308C 259.643,318.451 263.643,328.951 267.5,339.5 Z"/></g>
<g><path style="opacity:1" fill="#ffa9a7" d="M 398.5,309.5 C 400.898,309.259 402.898,309.926 404.5,311.5C 402.102,311.741 400.102,311.074 398.5,309.5 Z"/></g>
<g><path style="opacity:1" fill="#ff9f9d" d="M 404.5,311.5 C 407.152,311.41 409.485,312.076 411.5,313.5C 408.848,313.59 406.515,312.924 404.5,311.5 Z"/></g>
<g><path style="opacity:1" fill="#acacac" d="M 319.5,315.5 C 316.167,320.833 311.833,325.167 306.5,328.5C 310.5,323.833 314.833,319.5 319.5,315.5 Z"/></g>
<g><path style="opacity:1" fill="#b1b1b1" d="M 195.5,327.5 C 193.1,330.903 190.1,333.57 186.5,335.5C 188.9,332.097 191.9,329.43 195.5,327.5 Z"/></g>
<g><path style="opacity:1" fill="#0c0c0c" d="M 236.5,344.5 C 239.74,346.951 243.407,348.618 247.5,349.5C 247.833,349.5 248.167,349.5 248.5,349.5C 248.918,350.222 249.584,350.722 250.5,351C 241.84,351.5 233.173,351.666 224.5,351.5C 215.965,350.283 207.632,348.283 199.5,345.5C 199.196,344.85 198.863,344.183 198.5,343.5C 200.19,341.481 201.856,339.481 203.5,337.5C 205.965,334.015 209.132,331.348 213,329.5C 220.098,335.633 227.931,340.633 236.5,344.5 Z"/></g>
<g><path style="opacity:1" fill="#404040" d="M 203.5,337.5 C 201.856,339.481 200.19,341.481 198.5,343.5C 198.863,344.183 199.196,344.85 199.5,345.5C 198.005,345.585 197.005,344.919 196.5,343.5C 198.259,340.734 200.593,338.734 203.5,337.5 Z"/></g>
<g><path style="opacity:0.192" fill="#cbcbcb" d="M 19.5,200.5 C 17.2414,213.559 16.2414,226.725 16.5,240C 16.1669,291.833 31.5002,338.333 62.5,379.5C 61.8333,379.5 61.1667,379.5 60.5,379.5C 30.2939,338.547 14.9605,292.88 14.5,242.5C 14.7332,229.696 16.0665,217.03 18.5,204.5C 17.5788,202.969 17.9122,201.635 19.5,200.5 Z"/></g>
<g><path style="opacity:1" fill="#8d8d8d" d="M 267.5,339.5 C 268.434,340.568 268.768,341.901 268.5,343.5C 266.585,343.784 264.919,343.451 263.5,342.5C 264.833,342.5 266.167,342.5 267.5,342.5C 267.5,341.5 267.5,340.5 267.5,339.5 Z"/></g>
<g><path style="opacity:1" fill="#9a9a9a" d="M 236.5,344.5 C 240.836,344.837 244.503,346.504 247.5,349.5C 243.407,348.618 239.74,346.951 236.5,344.5 Z"/></g>
<g><path style="opacity:1" fill="#6d6d6d" d="M 248.5,349.5 C 249.833,349.5 251.167,349.5 252.5,349.5C 252.5,350.5 252.5,351.5 252.5,352.5C 242.985,352.827 233.652,352.494 224.5,351.5C 233.173,351.666 241.84,351.5 250.5,351C 249.584,350.722 248.918,350.222 248.5,349.5 Z"/></g>
<g><path style="opacity:1" fill="#ff7873" d="M 287.5,354.5 C 284.947,356.584 281.947,357.917 278.5,358.5C 281.053,356.416 284.053,355.083 287.5,354.5 Z"/></g>
<g><path style="opacity:1" fill="#ffb0ae" d="M 203.5,359.5 C 207.162,359.723 210.495,360.723 213.5,362.5C 209.838,362.277 206.505,361.277 203.5,359.5 Z"/></g>
<g><path style="opacity:1" fill="#ff9997" d="M 213.5,362.5 C 224.439,364.006 235.439,364.672 246.5,364.5C 235.387,366.061 224.387,365.394 213.5,362.5 Z"/></g>
<g><path style="opacity:1" fill="#ffc7c4" d="M 324.5,432.5 C 322.109,435.917 318.775,437.25 314.5,436.5C 317.54,434.654 320.873,433.321 324.5,432.5 Z"/></g>
<g><path style="opacity:0.024" fill="#dedede" d="M 60.5,379.5 C 61.1667,379.5 61.8333,379.5 62.5,379.5C 95.946,423.069 139.613,450.736 193.5,462.5C 195.515,463.924 197.848,464.59 200.5,464.5C 208.116,465.778 215.783,466.778 223.5,467.5C 235.322,468.495 247.322,468.828 259.5,468.5C 184.646,473.171 121.813,448.171 71,393.5C 67.2476,388.982 63.7476,384.316 60.5,379.5 Z"/></g>
<g><path style="opacity:0.012" fill="#d5d5d5" d="M 453.5,305.5 C 454.822,305.33 455.989,305.663 457,306.5C 457.667,308.5 457.667,310.5 457,312.5C 433.275,382.56 386.775,430.727 317.5,457C 308.024,460.286 298.357,462.786 288.5,464.5C 289.167,463.833 289.833,463.167 290.5,462.5C 318.75,455.576 345.083,444.076 369.5,428C 412.358,397.973 441.025,357.807 455.5,307.5C 454.833,306.833 454.167,306.167 453.5,305.5 Z"/></g>
<g><path style="opacity:1" fill="#ffa8a6" d="M 176.5,439.5 C 179.659,440.331 182.659,441.331 185.5,442.5C 181.919,442.862 178.919,441.862 176.5,439.5 Z"/></g>
<g><path style="opacity:1" fill="#ffbdbb" d="M 314.5,436.5 C 310.794,439.509 306.461,441.176 301.5,441.5C 305.522,439.266 309.856,437.599 314.5,436.5 Z"/></g>
<g><path style="opacity:1" fill="#ffa6a3" d="M 300.5,441.5 C 298.485,442.924 296.152,443.59 293.5,443.5C 295.515,442.076 297.848,441.41 300.5,441.5 Z"/></g>
<g><path style="opacity:1" fill="#ff716d" d="M 195.5,444.5 C 198.152,444.41 200.485,445.076 202.5,446.5C 199.848,446.59 197.515,445.924 195.5,444.5 Z"/></g>
<g><path style="opacity:1" fill="#ffc2c0" d="M 293.5,443.5 C 293.389,444.117 293.056,444.617 292.5,445C 286.99,446.89 281.324,447.723 275.5,447.5C 281.245,445.549 287.245,444.215 293.5,443.5 Z"/></g>
<g><path style="opacity:1" fill="#ff5448" d="M 204.5,446.5 C 224.79,448.197 245.124,448.864 265.5,448.5C 245.054,451.533 224.72,450.866 204.5,446.5 Z"/></g>
<g><path style="opacity:1" fill="#a7a7a7" d="M 172.5,447.5 C 178.166,448.39 183.5,450.057 188.5,452.5C 182.834,451.61 177.5,449.943 172.5,447.5 Z"/></g>
<g><path style="opacity:1" fill="#a3a3a3" d="M 196.5,454.5 C 201.1,454.28 205.433,454.946 209.5,456.5C 204.9,456.72 200.567,456.054 196.5,454.5 Z"/></g>
<g><path style="opacity:1" fill="#515151" d="M 289.5,453.5 C 287.524,455.011 285.191,455.844 282.5,456C 275.893,457.379 269.227,458.213 262.5,458.5C 271.307,456.474 280.307,454.807 289.5,453.5 Z"/></g>
<g><path style="opacity:1" fill="#858585" d="M 215.5,457.5 C 227.482,458.309 239.482,458.642 251.5,458.5C 246.845,459.166 242.012,459.499 237,459.5C 229.604,459.673 222.438,459.007 215.5,457.5 Z"/></g>
<g><path style="opacity:0.608" fill="#6c6c6c" d="M 193.5,462.5 C 196.152,462.41 198.485,463.076 200.5,464.5C 197.848,464.59 195.515,463.924 193.5,462.5 Z"/></g>
<g><path style="opacity:0.188" fill="#9c9c9c" d="M 290.5,462.5 C 289.833,463.167 289.167,463.833 288.5,464.5C 288.167,464.5 287.833,464.5 287.5,464.5C 280.864,465.448 274.197,466.115 267.5,466.5C 274.984,464.863 282.651,463.529 290.5,462.5 Z"/></g>
<g><path style="opacity:0.033" fill="#f0f0f0" d="M 287.5,464.5 C 278.822,467.074 269.822,468.408 260.5,468.5C 262.833,467.833 265.167,467.167 267.5,466.5C 274.197,466.115 280.864,465.448 287.5,464.5 Z"/></g>
<g><path style="opacity:0.568" fill="#878787" d="M 267.5,466.5 C 265.167,467.167 262.833,467.833 260.5,468.5C 260.167,468.5 259.833,468.5 259.5,468.5C 247.322,468.828 235.322,468.495 223.5,467.5C 238.184,467.685 252.851,467.351 267.5,466.5 Z"/></g>
</svg>
